<mxfile host="app.diagrams.net" modified="2021-11-29T03:40:07.607Z" agent="5.0 (Windows NT 10.0; Win64; x64) AppleWebKit/537.36 (KHTML, like Gecko) Chrome/96.0.4664.52 Whale/3.12.129.29 Safari/537.36" etag="wNg_WyCoOAd4CkNv1iKO" version="15.7.3" type="github">
  <diagram id="vsWGDtyikbRDqJUN1txh" name="Page-1">
    <mxGraphModel dx="1147" dy="2974" grid="1" gridSize="10" guides="1" tooltips="1" connect="1" arrows="1" fold="1" page="1" pageScale="1" pageWidth="827" pageHeight="1169" math="0" shadow="0">
      <root>
        <mxCell id="0" />
        <mxCell id="1" parent="0" />
        <mxCell id="zvOVA_19NKyjhbdjS4DR-78" value="" style="rounded=0;whiteSpace=wrap;html=1;" vertex="1" parent="1">
          <mxGeometry x="470" y="-1090" width="320" height="290" as="geometry" />
        </mxCell>
        <mxCell id="zvOVA_19NKyjhbdjS4DR-76" value="" style="rounded=0;whiteSpace=wrap;html=1;" vertex="1" parent="1">
          <mxGeometry x="470" y="-1380" width="320" height="280" as="geometry" />
        </mxCell>
        <mxCell id="zvOVA_19NKyjhbdjS4DR-67" style="edgeStyle=orthogonalEdgeStyle;rounded=0;orthogonalLoop=1;jettySize=auto;html=1;exitX=1;exitY=0.3333333333333333;exitDx=0;exitDy=0;exitPerimeter=0;entryX=0;entryY=0.5;entryDx=0;entryDy=0;" edge="1" parent="1" source="zvOVA_19NKyjhbdjS4DR-40" target="zvOVA_19NKyjhbdjS4DR-62">
          <mxGeometry relative="1" as="geometry" />
        </mxCell>
        <mxCell id="zvOVA_19NKyjhbdjS4DR-68" style="edgeStyle=orthogonalEdgeStyle;rounded=0;orthogonalLoop=1;jettySize=auto;html=1;exitX=1;exitY=0.3333333333333333;exitDx=0;exitDy=0;exitPerimeter=0;entryX=0;entryY=0.671;entryDx=0;entryDy=0;entryPerimeter=0;" edge="1" parent="1" source="zvOVA_19NKyjhbdjS4DR-40" target="zvOVA_19NKyjhbdjS4DR-63">
          <mxGeometry relative="1" as="geometry" />
        </mxCell>
        <mxCell id="zvOVA_19NKyjhbdjS4DR-69" style="edgeStyle=orthogonalEdgeStyle;rounded=0;orthogonalLoop=1;jettySize=auto;html=1;exitX=1;exitY=0.3333333333333333;exitDx=0;exitDy=0;exitPerimeter=0;entryX=0;entryY=0.5;entryDx=0;entryDy=0;" edge="1" parent="1" source="zvOVA_19NKyjhbdjS4DR-40" target="zvOVA_19NKyjhbdjS4DR-64">
          <mxGeometry relative="1" as="geometry">
            <Array as="points">
              <mxPoint x="550" y="-1290" />
              <mxPoint x="550" y="-1245" />
            </Array>
          </mxGeometry>
        </mxCell>
        <mxCell id="zvOVA_19NKyjhbdjS4DR-70" style="edgeStyle=orthogonalEdgeStyle;rounded=0;orthogonalLoop=1;jettySize=auto;html=1;exitX=1;exitY=0.3333333333333333;exitDx=0;exitDy=0;exitPerimeter=0;entryX=0;entryY=0.667;entryDx=0;entryDy=0;entryPerimeter=0;" edge="1" parent="1" source="zvOVA_19NKyjhbdjS4DR-40" target="zvOVA_19NKyjhbdjS4DR-65">
          <mxGeometry relative="1" as="geometry" />
        </mxCell>
        <mxCell id="zvOVA_19NKyjhbdjS4DR-72" style="edgeStyle=orthogonalEdgeStyle;rounded=0;orthogonalLoop=1;jettySize=auto;html=1;exitX=1;exitY=0.3333333333333333;exitDx=0;exitDy=0;exitPerimeter=0;entryX=0;entryY=0.5;entryDx=0;entryDy=0;" edge="1" parent="1" source="zvOVA_19NKyjhbdjS4DR-40" target="zvOVA_19NKyjhbdjS4DR-66">
          <mxGeometry relative="1" as="geometry" />
        </mxCell>
        <mxCell id="zvOVA_19NKyjhbdjS4DR-73" style="edgeStyle=orthogonalEdgeStyle;rounded=0;orthogonalLoop=1;jettySize=auto;html=1;exitX=1;exitY=0.3333333333333333;exitDx=0;exitDy=0;exitPerimeter=0;entryX=-0.007;entryY=0.729;entryDx=0;entryDy=0;entryPerimeter=0;" edge="1" parent="1" source="zvOVA_19NKyjhbdjS4DR-40" target="zvOVA_19NKyjhbdjS4DR-61">
          <mxGeometry relative="1" as="geometry" />
        </mxCell>
        <mxCell id="zvOVA_19NKyjhbdjS4DR-40" value="회원&lt;br&gt;" style="shape=umlActor;verticalLabelPosition=bottom;verticalAlign=top;html=1;outlineConnect=0;" vertex="1" parent="1">
          <mxGeometry x="490" y="-1310" width="30" height="60" as="geometry" />
        </mxCell>
        <mxCell id="zvOVA_19NKyjhbdjS4DR-74" style="edgeStyle=orthogonalEdgeStyle;rounded=0;orthogonalLoop=1;jettySize=auto;html=1;exitX=0;exitY=0.3333333333333333;exitDx=0;exitDy=0;exitPerimeter=0;entryX=1;entryY=0.5;entryDx=0;entryDy=0;" edge="1" parent="1" source="zvOVA_19NKyjhbdjS4DR-41" target="zvOVA_19NKyjhbdjS4DR-62">
          <mxGeometry relative="1" as="geometry" />
        </mxCell>
        <mxCell id="zvOVA_19NKyjhbdjS4DR-75" style="edgeStyle=orthogonalEdgeStyle;rounded=0;orthogonalLoop=1;jettySize=auto;html=1;exitX=0;exitY=0.3333333333333333;exitDx=0;exitDy=0;exitPerimeter=0;entryX=1;entryY=0.5;entryDx=0;entryDy=0;" edge="1" parent="1" source="zvOVA_19NKyjhbdjS4DR-41" target="zvOVA_19NKyjhbdjS4DR-64">
          <mxGeometry relative="1" as="geometry" />
        </mxCell>
        <mxCell id="zvOVA_19NKyjhbdjS4DR-41" value="비회원" style="shape=umlActor;verticalLabelPosition=bottom;verticalAlign=top;html=1;outlineConnect=0;" vertex="1" parent="1">
          <mxGeometry x="730" y="-1310" width="30" height="60" as="geometry" />
        </mxCell>
        <mxCell id="zvOVA_19NKyjhbdjS4DR-61" value="회원탈퇴" style="ellipse;whiteSpace=wrap;html=1;" vertex="1" parent="1">
          <mxGeometry x="580" y="-1140" width="100" height="30" as="geometry" />
        </mxCell>
        <mxCell id="zvOVA_19NKyjhbdjS4DR-62" value="회원가입" style="ellipse;whiteSpace=wrap;html=1;" vertex="1" parent="1">
          <mxGeometry x="580" y="-1330" width="100" height="30" as="geometry" />
        </mxCell>
        <mxCell id="zvOVA_19NKyjhbdjS4DR-63" value="비밀번호찾기&lt;br&gt;아이디찾기" style="ellipse;whiteSpace=wrap;html=1;" vertex="1" parent="1">
          <mxGeometry x="580" y="-1295" width="100" height="30" as="geometry" />
        </mxCell>
        <mxCell id="zvOVA_19NKyjhbdjS4DR-64" value="로그인/로그아웃" style="ellipse;whiteSpace=wrap;html=1;" vertex="1" parent="1">
          <mxGeometry x="580" y="-1260" width="100" height="30" as="geometry" />
        </mxCell>
        <mxCell id="zvOVA_19NKyjhbdjS4DR-65" value="마이페이지" style="ellipse;whiteSpace=wrap;html=1;" vertex="1" parent="1">
          <mxGeometry x="580" y="-1220" width="100" height="30" as="geometry" />
        </mxCell>
        <mxCell id="zvOVA_19NKyjhbdjS4DR-66" value="개인정보변경" style="ellipse;whiteSpace=wrap;html=1;" vertex="1" parent="1">
          <mxGeometry x="580" y="-1180" width="100" height="30" as="geometry" />
        </mxCell>
        <mxCell id="zvOVA_19NKyjhbdjS4DR-77" value="회원기능" style="rounded=0;whiteSpace=wrap;html=1;" vertex="1" parent="1">
          <mxGeometry x="470" y="-1380" width="80" height="30" as="geometry" />
        </mxCell>
        <mxCell id="zvOVA_19NKyjhbdjS4DR-79" value="상품" style="rounded=0;whiteSpace=wrap;html=1;" vertex="1" parent="1">
          <mxGeometry x="470" y="-1090" width="80" height="30" as="geometry" />
        </mxCell>
        <mxCell id="zvOVA_19NKyjhbdjS4DR-88" style="edgeStyle=orthogonalEdgeStyle;rounded=0;orthogonalLoop=1;jettySize=auto;html=1;exitX=1;exitY=0.3333333333333333;exitDx=0;exitDy=0;exitPerimeter=0;entryX=0;entryY=0.5;entryDx=0;entryDy=0;" edge="1" parent="1" source="zvOVA_19NKyjhbdjS4DR-80" target="zvOVA_19NKyjhbdjS4DR-82">
          <mxGeometry relative="1" as="geometry" />
        </mxCell>
        <mxCell id="zvOVA_19NKyjhbdjS4DR-89" style="edgeStyle=orthogonalEdgeStyle;rounded=0;orthogonalLoop=1;jettySize=auto;html=1;exitX=1;exitY=0.3333333333333333;exitDx=0;exitDy=0;exitPerimeter=0;entryX=0;entryY=0.5;entryDx=0;entryDy=0;" edge="1" parent="1" source="zvOVA_19NKyjhbdjS4DR-80" target="zvOVA_19NKyjhbdjS4DR-83">
          <mxGeometry relative="1" as="geometry" />
        </mxCell>
        <mxCell id="zvOVA_19NKyjhbdjS4DR-90" style="edgeStyle=orthogonalEdgeStyle;rounded=0;orthogonalLoop=1;jettySize=auto;html=1;exitX=1;exitY=0.3333333333333333;exitDx=0;exitDy=0;exitPerimeter=0;entryX=0;entryY=0.5;entryDx=0;entryDy=0;" edge="1" parent="1" source="zvOVA_19NKyjhbdjS4DR-80" target="zvOVA_19NKyjhbdjS4DR-85">
          <mxGeometry relative="1" as="geometry" />
        </mxCell>
        <mxCell id="zvOVA_19NKyjhbdjS4DR-91" style="edgeStyle=orthogonalEdgeStyle;rounded=0;orthogonalLoop=1;jettySize=auto;html=1;exitX=1;exitY=0.3333333333333333;exitDx=0;exitDy=0;exitPerimeter=0;entryX=0;entryY=0.5;entryDx=0;entryDy=0;" edge="1" parent="1" source="zvOVA_19NKyjhbdjS4DR-80" target="zvOVA_19NKyjhbdjS4DR-86">
          <mxGeometry relative="1" as="geometry" />
        </mxCell>
        <mxCell id="zvOVA_19NKyjhbdjS4DR-92" style="edgeStyle=orthogonalEdgeStyle;rounded=0;orthogonalLoop=1;jettySize=auto;html=1;exitX=1;exitY=0.3333333333333333;exitDx=0;exitDy=0;exitPerimeter=0;entryX=0;entryY=0.5;entryDx=0;entryDy=0;" edge="1" parent="1" source="zvOVA_19NKyjhbdjS4DR-80" target="zvOVA_19NKyjhbdjS4DR-84">
          <mxGeometry relative="1" as="geometry" />
        </mxCell>
        <mxCell id="zvOVA_19NKyjhbdjS4DR-95" style="edgeStyle=orthogonalEdgeStyle;rounded=0;orthogonalLoop=1;jettySize=auto;html=1;exitX=1;exitY=0.3333333333333333;exitDx=0;exitDy=0;exitPerimeter=0;entryX=0;entryY=0.5;entryDx=0;entryDy=0;" edge="1" parent="1" source="zvOVA_19NKyjhbdjS4DR-80" target="zvOVA_19NKyjhbdjS4DR-94">
          <mxGeometry relative="1" as="geometry" />
        </mxCell>
        <mxCell id="zvOVA_19NKyjhbdjS4DR-80" value="회원&lt;br&gt;" style="shape=umlActor;verticalLabelPosition=bottom;verticalAlign=top;html=1;outlineConnect=0;" vertex="1" parent="1">
          <mxGeometry x="495" y="-995" width="30" height="60" as="geometry" />
        </mxCell>
        <mxCell id="zvOVA_19NKyjhbdjS4DR-93" style="edgeStyle=orthogonalEdgeStyle;rounded=0;orthogonalLoop=1;jettySize=auto;html=1;exitX=0;exitY=0.3333333333333333;exitDx=0;exitDy=0;exitPerimeter=0;" edge="1" parent="1" source="zvOVA_19NKyjhbdjS4DR-81" target="zvOVA_19NKyjhbdjS4DR-83">
          <mxGeometry relative="1" as="geometry" />
        </mxCell>
        <mxCell id="zvOVA_19NKyjhbdjS4DR-81" value="비회원" style="shape=umlActor;verticalLabelPosition=bottom;verticalAlign=top;html=1;outlineConnect=0;" vertex="1" parent="1">
          <mxGeometry x="730" y="-990" width="30" height="60" as="geometry" />
        </mxCell>
        <mxCell id="zvOVA_19NKyjhbdjS4DR-82" value="상품구매" style="ellipse;whiteSpace=wrap;html=1;" vertex="1" parent="1">
          <mxGeometry x="570" y="-1060" width="100" height="30" as="geometry" />
        </mxCell>
        <mxCell id="zvOVA_19NKyjhbdjS4DR-83" value="상품목록" style="ellipse;whiteSpace=wrap;html=1;" vertex="1" parent="1">
          <mxGeometry x="570" y="-1020" width="100" height="30" as="geometry" />
        </mxCell>
        <mxCell id="zvOVA_19NKyjhbdjS4DR-84" value="리뷰작성" style="ellipse;whiteSpace=wrap;html=1;" vertex="1" parent="1">
          <mxGeometry x="570" y="-900" width="100" height="30" as="geometry" />
        </mxCell>
        <mxCell id="zvOVA_19NKyjhbdjS4DR-85" value="상품구매" style="ellipse;whiteSpace=wrap;html=1;" vertex="1" parent="1">
          <mxGeometry x="570" y="-980" width="100" height="30" as="geometry" />
        </mxCell>
        <mxCell id="zvOVA_19NKyjhbdjS4DR-86" value="주문내역조회" style="ellipse;whiteSpace=wrap;html=1;" vertex="1" parent="1">
          <mxGeometry x="570" y="-940" width="100" height="30" as="geometry" />
        </mxCell>
        <mxCell id="zvOVA_19NKyjhbdjS4DR-94" value="장바구니/&lt;br&gt;위시리스트" style="ellipse;whiteSpace=wrap;html=1;" vertex="1" parent="1">
          <mxGeometry x="570" y="-860" width="100" height="30" as="geometry" />
        </mxCell>
        <mxCell id="zvOVA_19NKyjhbdjS4DR-96" value="" style="rounded=0;whiteSpace=wrap;html=1;" vertex="1" parent="1">
          <mxGeometry x="120" y="-1380" width="320" height="580" as="geometry" />
        </mxCell>
        <mxCell id="zvOVA_19NKyjhbdjS4DR-97" style="edgeStyle=orthogonalEdgeStyle;rounded=0;orthogonalLoop=1;jettySize=auto;html=1;exitX=1;exitY=0.3333333333333333;exitDx=0;exitDy=0;exitPerimeter=0;entryX=0;entryY=0.5;entryDx=0;entryDy=0;" edge="1" parent="1" source="zvOVA_19NKyjhbdjS4DR-103" target="zvOVA_19NKyjhbdjS4DR-108">
          <mxGeometry relative="1" as="geometry" />
        </mxCell>
        <mxCell id="zvOVA_19NKyjhbdjS4DR-98" style="edgeStyle=orthogonalEdgeStyle;rounded=0;orthogonalLoop=1;jettySize=auto;html=1;exitX=1;exitY=0.3333333333333333;exitDx=0;exitDy=0;exitPerimeter=0;entryX=0;entryY=0.671;entryDx=0;entryDy=0;entryPerimeter=0;" edge="1" parent="1" source="zvOVA_19NKyjhbdjS4DR-103" target="zvOVA_19NKyjhbdjS4DR-109">
          <mxGeometry relative="1" as="geometry" />
        </mxCell>
        <mxCell id="zvOVA_19NKyjhbdjS4DR-100" style="edgeStyle=orthogonalEdgeStyle;rounded=0;orthogonalLoop=1;jettySize=auto;html=1;exitX=1;exitY=0.3333333333333333;exitDx=0;exitDy=0;exitPerimeter=0;entryX=0;entryY=0.667;entryDx=0;entryDy=0;entryPerimeter=0;" edge="1" parent="1" source="zvOVA_19NKyjhbdjS4DR-103" target="zvOVA_19NKyjhbdjS4DR-111">
          <mxGeometry relative="1" as="geometry" />
        </mxCell>
        <mxCell id="zvOVA_19NKyjhbdjS4DR-101" style="edgeStyle=orthogonalEdgeStyle;rounded=0;orthogonalLoop=1;jettySize=auto;html=1;exitX=1;exitY=0.3333333333333333;exitDx=0;exitDy=0;exitPerimeter=0;entryX=0;entryY=0.5;entryDx=0;entryDy=0;" edge="1" parent="1" source="zvOVA_19NKyjhbdjS4DR-103" target="zvOVA_19NKyjhbdjS4DR-112">
          <mxGeometry relative="1" as="geometry" />
        </mxCell>
        <mxCell id="zvOVA_19NKyjhbdjS4DR-102" style="edgeStyle=orthogonalEdgeStyle;rounded=0;orthogonalLoop=1;jettySize=auto;html=1;exitX=1;exitY=0.3333333333333333;exitDx=0;exitDy=0;exitPerimeter=0;entryX=-0.007;entryY=0.729;entryDx=0;entryDy=0;entryPerimeter=0;" edge="1" parent="1" source="zvOVA_19NKyjhbdjS4DR-103" target="zvOVA_19NKyjhbdjS4DR-107">
          <mxGeometry relative="1" as="geometry" />
        </mxCell>
        <mxCell id="zvOVA_19NKyjhbdjS4DR-126" style="edgeStyle=orthogonalEdgeStyle;rounded=0;orthogonalLoop=1;jettySize=auto;html=1;exitX=1;exitY=0.3333333333333333;exitDx=0;exitDy=0;exitPerimeter=0;entryX=0;entryY=0.5;entryDx=0;entryDy=0;" edge="1" parent="1" source="zvOVA_19NKyjhbdjS4DR-103" target="zvOVA_19NKyjhbdjS4DR-120">
          <mxGeometry relative="1" as="geometry" />
        </mxCell>
        <mxCell id="zvOVA_19NKyjhbdjS4DR-127" style="edgeStyle=orthogonalEdgeStyle;rounded=0;orthogonalLoop=1;jettySize=auto;html=1;exitX=1;exitY=0.3333333333333333;exitDx=0;exitDy=0;exitPerimeter=0;entryX=0;entryY=0.5;entryDx=0;entryDy=0;" edge="1" parent="1" source="zvOVA_19NKyjhbdjS4DR-103" target="zvOVA_19NKyjhbdjS4DR-122">
          <mxGeometry relative="1" as="geometry" />
        </mxCell>
        <mxCell id="zvOVA_19NKyjhbdjS4DR-128" style="edgeStyle=orthogonalEdgeStyle;rounded=0;orthogonalLoop=1;jettySize=auto;html=1;exitX=1;exitY=0.3333333333333333;exitDx=0;exitDy=0;exitPerimeter=0;entryX=0;entryY=0.5;entryDx=0;entryDy=0;" edge="1" parent="1" source="zvOVA_19NKyjhbdjS4DR-103" target="zvOVA_19NKyjhbdjS4DR-123">
          <mxGeometry relative="1" as="geometry" />
        </mxCell>
        <mxCell id="zvOVA_19NKyjhbdjS4DR-129" style="edgeStyle=orthogonalEdgeStyle;rounded=0;orthogonalLoop=1;jettySize=auto;html=1;exitX=1;exitY=0.3333333333333333;exitDx=0;exitDy=0;exitPerimeter=0;entryX=0;entryY=0.5;entryDx=0;entryDy=0;" edge="1" parent="1" source="zvOVA_19NKyjhbdjS4DR-103" target="zvOVA_19NKyjhbdjS4DR-124">
          <mxGeometry relative="1" as="geometry" />
        </mxCell>
        <mxCell id="zvOVA_19NKyjhbdjS4DR-130" style="edgeStyle=orthogonalEdgeStyle;rounded=0;orthogonalLoop=1;jettySize=auto;html=1;exitX=1;exitY=0.3333333333333333;exitDx=0;exitDy=0;exitPerimeter=0;entryX=0;entryY=0.5;entryDx=0;entryDy=0;" edge="1" parent="1" source="zvOVA_19NKyjhbdjS4DR-103" target="zvOVA_19NKyjhbdjS4DR-125">
          <mxGeometry relative="1" as="geometry" />
        </mxCell>
        <mxCell id="zvOVA_19NKyjhbdjS4DR-131" style="edgeStyle=orthogonalEdgeStyle;rounded=0;orthogonalLoop=1;jettySize=auto;html=1;exitX=1;exitY=0.3333333333333333;exitDx=0;exitDy=0;exitPerimeter=0;entryX=0;entryY=0.5;entryDx=0;entryDy=0;" edge="1" parent="1" source="zvOVA_19NKyjhbdjS4DR-103" target="zvOVA_19NKyjhbdjS4DR-110">
          <mxGeometry relative="1" as="geometry" />
        </mxCell>
        <mxCell id="zvOVA_19NKyjhbdjS4DR-134" style="edgeStyle=orthogonalEdgeStyle;rounded=0;orthogonalLoop=1;jettySize=auto;html=1;exitX=1;exitY=0.3333333333333333;exitDx=0;exitDy=0;exitPerimeter=0;entryX=0;entryY=0.5;entryDx=0;entryDy=0;" edge="1" parent="1" source="zvOVA_19NKyjhbdjS4DR-103" target="zvOVA_19NKyjhbdjS4DR-133">
          <mxGeometry relative="1" as="geometry" />
        </mxCell>
        <mxCell id="zvOVA_19NKyjhbdjS4DR-103" value="관리자" style="shape=umlActor;verticalLabelPosition=bottom;verticalAlign=top;html=1;outlineConnect=0;" vertex="1" parent="1">
          <mxGeometry x="140" y="-1250" width="30" height="60" as="geometry" />
        </mxCell>
        <mxCell id="zvOVA_19NKyjhbdjS4DR-107" value="게시판 등록" style="ellipse;whiteSpace=wrap;html=1;" vertex="1" parent="1">
          <mxGeometry x="230" y="-980" width="100" height="30" as="geometry" />
        </mxCell>
        <mxCell id="zvOVA_19NKyjhbdjS4DR-108" value="회원목록/관리" style="ellipse;whiteSpace=wrap;html=1;" vertex="1" parent="1">
          <mxGeometry x="230" y="-1180" width="100" height="30" as="geometry" />
        </mxCell>
        <mxCell id="zvOVA_19NKyjhbdjS4DR-109" value="회원 정보&amp;nbsp;&lt;br&gt;수정/삭제" style="ellipse;whiteSpace=wrap;html=1;" vertex="1" parent="1">
          <mxGeometry x="230" y="-1140" width="100" height="30" as="geometry" />
        </mxCell>
        <mxCell id="zvOVA_19NKyjhbdjS4DR-110" value="배송처리" style="ellipse;whiteSpace=wrap;html=1;" vertex="1" parent="1">
          <mxGeometry x="230" y="-1100" width="100" height="30" as="geometry" />
        </mxCell>
        <mxCell id="zvOVA_19NKyjhbdjS4DR-111" value="상품등록" style="ellipse;whiteSpace=wrap;html=1;" vertex="1" parent="1">
          <mxGeometry x="231" y="-1060" width="100" height="30" as="geometry" />
        </mxCell>
        <mxCell id="zvOVA_19NKyjhbdjS4DR-112" value="상품&lt;br&gt;삭제/수정" style="ellipse;whiteSpace=wrap;html=1;" vertex="1" parent="1">
          <mxGeometry x="230" y="-1020" width="100" height="30" as="geometry" />
        </mxCell>
        <mxCell id="zvOVA_19NKyjhbdjS4DR-113" value="관리자" style="rounded=0;whiteSpace=wrap;html=1;" vertex="1" parent="1">
          <mxGeometry x="120" y="-1380" width="80" height="30" as="geometry" />
        </mxCell>
        <mxCell id="zvOVA_19NKyjhbdjS4DR-120" value="카테고리&lt;br&gt;등록/수정" style="ellipse;whiteSpace=wrap;html=1;" vertex="1" parent="1">
          <mxGeometry x="230" y="-1380" width="100" height="30" as="geometry" />
        </mxCell>
        <mxCell id="zvOVA_19NKyjhbdjS4DR-122" value="색상 삭제/등록" style="ellipse;whiteSpace=wrap;html=1;" vertex="1" parent="1">
          <mxGeometry x="230" y="-1340" width="100" height="30" as="geometry" />
        </mxCell>
        <mxCell id="zvOVA_19NKyjhbdjS4DR-123" value="사이즈 삭제/등록" style="ellipse;whiteSpace=wrap;html=1;" vertex="1" parent="1">
          <mxGeometry x="230" y="-1300" width="100" height="30" as="geometry" />
        </mxCell>
        <mxCell id="zvOVA_19NKyjhbdjS4DR-124" value="재고관리" style="ellipse;whiteSpace=wrap;html=1;" vertex="1" parent="1">
          <mxGeometry x="230" y="-1260" width="100" height="30" as="geometry" />
        </mxCell>
        <mxCell id="zvOVA_19NKyjhbdjS4DR-125" value="홈페이지통계" style="ellipse;whiteSpace=wrap;html=1;" vertex="1" parent="1">
          <mxGeometry x="230" y="-1220" width="100" height="30" as="geometry" />
        </mxCell>
        <mxCell id="zvOVA_19NKyjhbdjS4DR-133" value="게시판&amp;nbsp;&lt;br&gt;수정/삭제" style="ellipse;whiteSpace=wrap;html=1;" vertex="1" parent="1">
          <mxGeometry x="230" y="-940" width="100" height="30" as="geometry" />
        </mxCell>
        <mxCell id="zvOVA_19NKyjhbdjS4DR-137" value="게시판&amp;nbsp;&lt;br&gt;수정/삭제" style="ellipse;whiteSpace=wrap;html=1;" vertex="1" parent="1">
          <mxGeometry x="210" y="-780" width="100" height="30" as="geometry" />
        </mxCell>
      </root>
    </mxGraphModel>
  </diagram>
</mxfile>
